<?xml version="1.0" encoding="UTF-8" standalone="no"?>
<svg width="60px" height="60px" viewBox="0 0 60 60" version="1.1" xmlns="http://www.w3.org/2000/svg" xmlns:xlink="http://www.w3.org/1999/xlink" xmlns:sketch="http://www.bohemiancoding.com/sketch/ns">
    <!-- Generator: Sketch 3.2.2 (9983) - http://www.bohemiancoding.com/sketch -->
    <title>Measureunit</title>
    <desc>Created with Sketch.</desc>
    <defs></defs>
    <g id="stroked" stroke="none" stroke-width="1" fill="none" fill-rule="evenodd" sketch:type="MSPage">
        <g id="Kitchen" sketch:type="MSLayerGroup" transform="translate(-607.000000, -1438.000000)" stroke="#535353" stroke-width="2" stroke-linejoin="round">
            <g id="Measureunit" transform="translate(612.000000, 1447.000000)" sketch:type="MSShapeGroup">
                <path d="M10,0 L41,0 L35.6113352,9.52228867 L34,49 L12,49 L10,0 Z" id="Rectangle-854" stroke-linecap="round"></path>
                <path d="M10.8743006,24.5796745 C10.8743006,24.5796745 -1.96659146,13.6120022 0.964518069,9.42550268 C3.8956276,5.2390032 10.3491572,10.1015407 10.3491572,10.1015407" id="Path-1786" stroke-linecap="round"></path>
                <path d="M14.2200972,5.2823339 L15.8231104,43.7546488" id="Line" stroke-linecap="square"></path>
                <path d="M15,9 L20,9" id="Line" stroke-linecap="square"></path>
                <path d="M16,21 L21,21" id="Line" stroke-linecap="square"></path>
                <path d="M15,15 L18,15" id="Line" stroke-linecap="square"></path>
                <path d="M16,27 L19,27" id="Line" stroke-linecap="square"></path>
                <path d="M17,34 L22,34" id="Line-240" stroke-linecap="square"></path>
                <path d="M17,40 L20,40" id="Line-239" stroke-linecap="square"></path>
            </g>
        </g>
    </g>
</svg>