<?xml version="1.0" encoding="UTF-8" standalone="no"?>
<svg width="60px" height="60px" viewBox="0 0 60 60" version="1.1" xmlns="http://www.w3.org/2000/svg" xmlns:xlink="http://www.w3.org/1999/xlink" xmlns:sketch="http://www.bohemiancoding.com/sketch/ns">
    <!-- Generator: Sketch 3.2.2 (9983) - http://www.bohemiancoding.com/sketch -->
    <title>Pinfavorite</title>
    <desc>Created with Sketch.</desc>
    <defs></defs>
    <g id="stroked" stroke="none" stroke-width="1" fill="none" fill-rule="evenodd" sketch:type="MSPage">
        <g id="Transport" sketch:type="MSLayerGroup" transform="translate(-599.000000, -118.000000)" stroke="#535353" stroke-width="2" stroke-linecap="round" stroke-linejoin="round">
            <g id="Pinfavorite" transform="translate(609.000000, 121.000000)" sketch:type="MSShapeGroup">
                <path d="M0,22 L14,24.2173913 L14,56 L0,53.7826087 L0,22 Z" id="Rectangle-1679"></path>
                <path d="M28,22 L42,24.2173913 L42,56 L28,53.7826087 L28,22 Z" id="Rectangle-1679"></path>
                <path d="M14,22 L28,24.2173913 L28,56 L14,53.7826087 L14,22 Z" id="Rectangle-1679" transform="translate(21.000000, 39.000000) scale(-1, 1) translate(-21.000000, -39.000000) "></path>
                <polygon id="Star-19" points="22 15 16.1221475 18.0901699 17.2447174 11.545085 12.4894348 6.90983006 19.0610737 5.95491503 22 0 24.9389263 5.95491503 31.5105652 6.90983006 26.7552826 11.545085 27.8778525 18.0901699 "></polygon>
            </g>
        </g>
    </g>
</svg>