<?xml version="1.0" encoding="iso-8859-1"?>
<!DOCTYPE svg PUBLIC "-//W3C//DTD SVG 1.1//EN" "http://www.w3.org/Graphics/SVG/1.1/DTD/svg11.dtd">
<svg 
 version="1.1" xmlns="http://www.w3.org/2000/svg" xmlns:xlink="http://www.w3.org/1999/xlink" x="0px" y="0px" width="512px"
	 height="512px" viewBox="0 0 512 512" enable-background="new 0 0 512 512" xml:space="preserve"
><g id="b75708d097f2188dff6617b0f00c50bc"><g></g><path d="M423.064,234.227c2.079-7.369,3.269-15.108,3.269-23.139c0-47.037-38.129-80.908-85.166-80.908
			c-15.782,0-30.512,3.884-43.183,10.729c-22.968-32.674-61.808-53.313-105.859-53.313c-70.554,0-127.75,52.938-127.75,123.491
			c0,8.999,0.94,17.773,2.711,26.249C28.466,249.691,0.5,285.866,0.5,328.591c0,52.918,42.895,95.813,95.813,95.813l320.174-0.398
			c52.472,0,95.014-42.542,95.014-95.015C511.5,278.73,472.468,237.607,423.064,234.227z M416.448,394.196l-320.136,0.399
			c-36.396,0-66.004-29.609-66.004-66.005c0-28.826,18.431-54.09,45.86-62.864c14.544-4.651,23.219-19.543,20.096-34.488
			c-1.38-6.605-2.082-13.384-2.082-20.15c0-52.532,43.022-93.684,97.942-93.684c33.125,0,63.582,15.195,81.474,40.646
			c5.76,8.192,14.976,12.669,24.406,12.669c4.804,0,9.661-1.16,14.147-3.584c8.654-4.675,18.688-7.146,29.015-7.146
			c31.559,0,55.358,21.967,55.358,51.1c0,4.93-0.724,9.991-2.15,15.044c-2.437,8.642-0.849,17.921,4.32,25.261
			c5.174,7.342,13.379,11.96,22.336,12.571c34.013,2.328,60.66,30.894,60.66,65.026C481.691,364.945,452.44,394.196,416.448,394.196
			z"></path><path d="M302.684,270.172c14.435,0,26.148-11.706,26.148-26.152c0-14.435-11.714-26.145-26.148-26.145
			c-14.442,0-26.153,11.71-26.153,26.145c0,0.799,0.055,1.584,0.125,2.366l-50.389,25.695c-4.57-3.893-10.479-6.255-16.942-6.255
			c-14.455,0-26.157,11.707-26.157,26.146c0,14.442,11.702,26.148,26.157,26.148c5.818,0,11.178-1.93,15.516-5.148l51.761,26.39
			c-0.029,0.471-0.071,0.932-0.071,1.41c0,14.442,11.711,26.145,26.153,26.145c14.435,0,26.148-11.702,26.148-26.145
			s-11.714-26.153-26.148-26.153c-6.774,0-12.925,2.6-17.569,6.82l-49.986-25.483c0.2-1.306,0.333-2.624,0.333-3.983
			c0-0.762-0.046-1.515-0.104-2.263l50.456-25.729C290.366,267.835,296.246,270.172,302.684,270.172z"></path></g></svg>